<svg width="15" height="16" viewBox="0 0 15 16" fill="none" xmlns="http://www.w3.org/2000/svg">
<path d="M8.3313 9.09375L9.98755 9.3125C10.1125 9.35417 10.1959 9.42708 10.2375 9.53125C10.2792 9.65625 10.248 9.77083 10.1438 9.875L8.9563 11.0312L9.23755 12.6875C9.25838 12.8125 9.21672 12.9167 9.11255 13C9.00838 13.0833 8.8938 13.0938 8.7688 13.0312L7.30005 12.25L5.8313 13.0312C5.7063 13.0938 5.59172 13.0833 5.48755 13C5.38338 12.9167 5.34172 12.8125 5.36255 12.6875L5.6438 11.0312L4.4563 9.875C4.35213 9.77083 4.32088 9.65625 4.36255 9.53125C4.40422 9.42708 4.48755 9.35417 4.61255 9.3125L6.2688 9.09375L7.0188 7.59375C7.0813 7.46875 7.17505 7.40625 7.30005 7.40625C7.42505 7.40625 7.5188 7.46875 7.5813 7.59375L8.3313 9.09375ZM4.30005 0C4.75838 0.0416667 5.00838 0.291667 5.05005 0.75V2H9.55005V0.75C9.59172 0.291667 9.84172 0.0416667 10.3 0C10.7584 0.0416667 11.0084 0.291667 11.05 0.75V2H12.3C12.8625 2.02083 13.3313 2.21875 13.7063 2.59375C14.0813 2.96875 14.2792 3.4375 14.3 4V14C14.2792 14.5625 14.0813 15.0312 13.7063 15.4062C13.3313 15.7812 12.8625 15.9792 12.3 16H2.30005C1.73755 15.9792 1.2688 15.7812 0.893799 15.4062C0.518799 15.0312 0.320882 14.5625 0.300049 14V4C0.320882 3.4375 0.518799 2.96875 0.893799 2.59375C1.2688 2.21875 1.73755 2.02083 2.30005 2H3.55005V0.75C3.59172 0.291667 3.84172 0.0416667 4.30005 0ZM12.8 6H1.80005V14C1.82088 14.3125 1.98755 14.4792 2.30005 14.5H12.3C12.6125 14.4792 12.7792 14.3125 12.8 14V6Z" fill="#747980"/>
</svg>
