<svg width="17" height="14" viewBox="0 0 17 14" fill="none" xmlns="http://www.w3.org/2000/svg">
<path d="M1.80005 11.75C1.84172 12.2083 2.09172 12.4583 2.55005 12.5H15.55C16.0084 12.5417 16.2584 12.7917 16.3 13.25C16.2584 13.7083 16.0084 13.9583 15.55 14H2.55005C1.90422 13.9792 1.37297 13.7604 0.956299 13.3438C0.539632 12.9271 0.320882 12.3958 0.300049 11.75V0.75C0.341715 0.291667 0.591715 0.0416667 1.05005 0C1.50838 0.0416667 1.75838 0.291667 1.80005 0.75V11.75ZM11.05 3H14.55C15.0084 3.04167 15.2584 3.29167 15.3 3.75V7.25C15.2584 7.70833 15.0084 7.95833 14.55 8C14.0917 7.95833 13.8417 7.70833 13.8 7.25V5.5625L10.3 9C9.96672 9.3125 9.62297 9.3125 9.2688 9L6.7688 6.5625L4.80005 8.5C4.46672 8.8125 4.12297 8.8125 3.7688 8.5C3.47713 8.16667 3.47713 7.82292 3.7688 7.46875L6.2688 4.96875C6.62297 4.67708 6.96672 4.67708 7.30005 4.96875L9.80005 7.4375L12.7375 4.5H11.05C10.5917 4.45833 10.3417 4.20833 10.3 3.75C10.3417 3.29167 10.5917 3.04167 11.05 3Z" fill="#5F55D0"/>
</svg>
