<svg width="17" height="17" viewBox="0 0 17 17" fill="none" xmlns="http://www.w3.org/2000/svg">
<path d="M15.175 1.125C15.925 1.89583 16.3 2.79167 16.3 3.8125C16.3 4.8125 15.9146 5.71875 15.1438 6.53125L14.2375 7.40625C13.4875 8.13542 12.6021 8.51042 11.5813 8.53125L8.98755 10.7812V15.25C8.94588 15.7083 8.69588 15.9583 8.23755 16C7.80005 15.9583 7.56047 15.7083 7.5188 15.25V12.0938L3.55005 15.625C3.23755 15.8958 2.8938 16.0208 2.5188 16C2.1438 15.9792 1.81047 15.8333 1.5188 15.5625L0.706299 14.75C0.435465 14.4583 0.300049 14.125 0.300049 13.75C0.300049 13.3542 0.425049 13.0104 0.675049 12.7188L7.80005 4.65625C7.82088 3.63542 8.19588 2.75 8.92505 2L9.80005 1.125C10.5917 0.375 11.4875 0 12.4875 0C13.5084 0 14.4042 0.375 15.175 1.125ZM2.5813 14.4688L10.1125 7.8125L8.4563 6.15625L1.80005 13.6875L2.5813 14.4688ZM11.6125 7C12.1959 7 12.7063 6.80208 13.1438 6.40625L9.8938 3.15625C9.4563 3.67708 9.2688 4.27083 9.3313 4.9375L11.3625 6.96875C11.4459 6.98958 11.5292 7 11.6125 7ZM14.2063 5.34375C14.6021 4.86458 14.8 4.33333 14.8 3.75C14.7792 3.14583 14.55 2.625 14.1125 2.1875C13.675 1.75 13.1542 1.52083 12.55 1.5C11.9459 1.47917 11.4146 1.67708 10.9563 2.09375L14.2063 5.34375Z" fill="#747980"/>
</svg>
