<svg width="13" height="16" viewBox="0 0 13 16" fill="none" xmlns="http://www.w3.org/2000/svg">
<path d="M8.80005 6C8.77922 6.70833 8.53963 7.30208 8.0813 7.78125C7.60213 8.23958 7.00838 8.47917 6.30005 8.5C5.59172 8.47917 4.99797 8.23958 4.5188 7.78125C4.06047 7.30208 3.82088 6.70833 3.80005 6C3.82088 5.29167 4.06047 4.69792 4.5188 4.21875C4.99797 3.76042 5.59172 3.52083 6.30005 3.5C7.00838 3.52083 7.60213 3.76042 8.0813 4.21875C8.53963 4.69792 8.77922 5.29167 8.80005 6ZM6.30005 5C6.00838 5 5.7688 5.09375 5.5813 5.28125C5.3938 5.46875 5.30005 5.70833 5.30005 6C5.30005 6.29167 5.3938 6.53125 5.5813 6.71875C5.7688 6.90625 6.00838 7 6.30005 7C6.59172 7 6.8313 6.90625 7.0188 6.71875C7.2063 6.53125 7.30005 6.29167 7.30005 6C7.30005 5.70833 7.2063 5.46875 7.0188 5.28125C6.8313 5.09375 6.59172 5 6.30005 5ZM12.3 6C12.2584 6.9375 11.925 8.02083 11.3 9.25C10.6542 10.4792 9.92505 11.6667 9.11255 12.8125C8.30005 13.9792 7.61255 14.9062 7.05005 15.5938C6.84172 15.8438 6.59172 15.9688 6.30005 15.9688C6.00838 15.9688 5.75838 15.8438 5.55005 15.5938C4.98755 14.9062 4.28963 13.9792 3.4563 12.8125C2.6438 11.6667 1.92505 10.4792 1.30005 9.25C0.675049 8.02083 0.341715 6.9375 0.300049 6C0.341715 4.29167 0.925049 2.875 2.05005 1.75C3.17505 0.625 4.59172 0.0416667 6.30005 0C8.00838 0.0416667 9.42505 0.625 10.55 1.75C11.675 2.875 12.2584 4.29167 12.3 6ZM6.30005 1.5C5.02922 1.54167 3.96672 1.97917 3.11255 2.8125C2.27922 3.66667 1.84172 4.72917 1.80005 6C1.80005 6.39583 1.9563 6.98958 2.2688 7.78125C2.62297 8.57292 3.07088 9.40625 3.61255 10.2812C4.05005 11.0104 4.50838 11.6979 4.98755 12.3438C5.46672 13.0104 5.90422 13.6042 6.30005 14.125C6.69588 13.6042 7.13338 13.0208 7.61255 12.375C8.09172 11.7083 8.55005 11.0104 8.98755 10.2812C9.52922 9.40625 9.97713 8.57292 10.3313 7.78125C10.6438 6.98958 10.8 6.39583 10.8 6C10.7584 4.72917 10.3209 3.66667 9.48755 2.8125C8.63338 1.97917 7.57088 1.54167 6.30005 1.5Z" fill="#747980"/>
</svg>
