<svg width="15" height="16" viewBox="0 0 15 16" fill="none" xmlns="http://www.w3.org/2000/svg">
<path d="M8.80005 9.5C10.3625 9.54167 11.6542 10.0833 12.675 11.125C13.7167 12.1458 14.2584 13.4375 14.3 15C14.3 15.2917 14.2063 15.5312 14.0188 15.7188C13.8313 15.9062 13.5917 16 13.3 16H1.30005C1.00838 16 0.768799 15.9062 0.581299 15.7188C0.393799 15.5312 0.300049 15.2917 0.300049 15C0.341715 13.4375 0.883382 12.1458 1.92505 11.125C2.94588 10.0833 4.23755 9.54167 5.80005 9.5H8.80005ZM1.8313 14.5H12.7688C12.623 13.5 12.1855 12.6667 11.4563 12C10.7271 11.3542 9.84172 11.0208 8.80005 11H5.80005C4.75838 11.0208 3.87297 11.3542 3.1438 12C2.41463 12.6667 1.97713 13.5 1.8313 14.5ZM7.30005 8C6.17505 7.97917 5.22713 7.59375 4.4563 6.84375C3.7063 6.07292 3.32088 5.125 3.30005 4C3.32088 2.875 3.7063 1.92708 4.4563 1.15625C5.22713 0.40625 6.17505 0.0208333 7.30005 0C8.42505 0.0208333 9.37297 0.40625 10.1438 1.15625C10.8938 1.92708 11.2792 2.875 11.3 4C11.2792 5.125 10.8938 6.07292 10.1438 6.84375C9.37297 7.59375 8.42505 7.97917 7.30005 8ZM7.30005 1.5C6.59172 1.52083 5.99797 1.76042 5.5188 2.21875C5.06047 2.69792 4.82088 3.29167 4.80005 4C4.82088 4.70833 5.06047 5.30208 5.5188 5.78125C5.99797 6.23958 6.59172 6.47917 7.30005 6.5C8.00838 6.47917 8.60213 6.23958 9.0813 5.78125C9.53963 5.30208 9.77922 4.70833 9.80005 4C9.77922 3.29167 9.53963 2.69792 9.0813 2.21875C8.60213 1.76042 8.00838 1.52083 7.30005 1.5Z" fill="#5F55D0"/>
</svg>
