<svg width="1200" height="1024" viewBox="0 0 1200 1024" fill="none" xmlns="http://www.w3.org/2000/svg">
<path d="M-83.4998 -7.99995V1015M-54.9998 -7.99995V1015M-26.9998 -7.99995V1015M1.00015 -7.99995V1015M29.0002 -7.99995V1015M57.0002 -7.99995V1015M85.0002 -7.99995V1015M113 -7.99995V1015M141 -7.99995V1015M169 -7.99995V1015M197 -7.99995V1015M225 -7.99995V1015M253 -7.99995V1015M281 -7.99995V1015M309 -7.99995V1015M337 -7.99995V1015M365 -7.99995V1015M393 -7.99995V1015M421 -7.99995V1015M449 -7.99995V1015M477 -7.99995V1015M505 -7.99995V1015M533 -7.99995V1015M561 -7.99995V1015M589 -7.99995V1015M617 -7.99995V1015M645 -7.99995V1015M673 -7.99995V1015M701 -7.99995V1015M729 -7.99995V1015M757 -7.99995V1015M785 -7.99995V1015M813 -7.99995V1015M841 -7.99995V1015M869 -7.99995V1015M897 -7.99995V1015M925 -7.99995V1015M953 -7.99995V1015M981 -7.99995V1015M1009 -7.99995V1015M1037 -7.99995V1015M1065 -7.99995V1015M1093 -7.99995V1015M1121 -7.99995V1015M1149 -7.99995V1015M1177 -7.99995V1015M1205 -7.99995V1015M1233 -7.99995V1015M1261 -7.99995V1015M1289 -7.99995V1015M1317 -7.99995V1015M1345 -7.99995V1015M1218 -196.5L-147 -196.5M1218 -167.5L-147 -167.5M1218 -138.5L-147 -138.5M1218 -109.5L-147 -109.5M1218 -80.5L-147 -80.5M1218 -51.5L-147 -51.5M1218 -22.5L-147 -22.5M1218 6.50003L-147 6.5M1218 35.5L-147 35.5M1218 64.5L-147 64.5M1218 93.5L-169 93M1218 122L-147 122M1218 151L-147 151M1218 180L-147 180M1218 209L-147 209M1218 238L-147 238M1218 267L-147 267M1218 296L-147 296M1218 325L-147 325M1218 354L-147 354M1218 383L-147 383M1218 412L-147 412M1218 441L-147 441M1218 470L-147 470M1218 499L-147 499M1218 528L-147 528M1218 557L-147 557M1218 586L-147 586M1218 615L-147 615M1218 644L-147 644M1218 673L-147 673M1218 702L-147 702M1218 731L-147 731M1218 760L-147 760M1218 789L-147 789M1218 818L-147 818M1218 847H-147M1218 876H-147M1218 905H-147M1218 934H-147M1218 963H-147M1218 992H-147M1218 1021H-147M1218 1050H-147M1218 1079H-147M1218 1108H-147M1218 1137H-147M1218 1166H-147M1218 1195H-147M1218 1224H-147M1218 1253H-147" stroke="#E5E5FF"/>
</svg>
