<svg width="40" height="40" viewBox="0 0 40 40" fill="none" xmlns="http://www.w3.org/2000/svg">
<path d="M22.6038 2.36095C24.942 -1.71583 31.1769 0.880555 29.9304 5.41193L27.633 13.7636C27.149 15.5229 27.9169 17.3866 29.4997 18.2944L37.0135 22.6038C41.0903 24.942 38.4939 31.1769 33.9625 29.9304L25.6108 27.633C23.8516 27.149 21.9878 27.9169 21.0801 29.4997L16.7707 37.0135C14.4325 41.0903 8.1976 38.4939 9.4441 33.9626L11.7415 25.6108C12.2254 23.8516 11.4576 21.9878 9.87481 21.0801L2.36094 16.7707C-1.71584 14.4325 0.880549 8.1976 5.41192 9.4441L13.7636 11.7415C15.5229 12.2254 17.3866 11.4576 18.2944 9.87482L22.6038 2.36095Z" fill="#F2CA9A"/>
</svg>
