<svg width="21" height="17" viewBox="0 0 21 17" fill="none" xmlns="http://www.w3.org/2000/svg">
<path d="M13.3 2.46875V8.5C13.2792 9.0625 13.0813 9.53125 12.7063 9.90625C12.3313 10.2812 11.8625 10.4792 11.3 10.5H7.30005L3.8938 12.4375C3.8313 12.4792 3.75838 12.5 3.67505 12.5C3.44588 12.4792 3.32088 12.3542 3.30005 12.125V10.5H2.30005C1.73755 10.4792 1.2688 10.2812 0.893799 9.90625C0.518799 9.53125 0.320882 9.0625 0.300049 8.5V2.46875C0.320882 1.92708 0.518799 1.46875 0.893799 1.09375C1.2688 0.71875 1.73755 0.520833 2.30005 0.5H11.3C11.8625 0.520833 12.3313 0.71875 12.7063 1.09375C13.0813 1.46875 13.2792 1.92708 13.3 2.46875ZM4.80005 10.1875L6.8938 9H11.3C11.6125 8.97917 11.7792 8.8125 11.8 8.5V2.5C11.7792 2.1875 11.6125 2.02083 11.3 2H2.30005C1.98755 2.02083 1.82088 2.1875 1.80005 2.5V8.5C1.82088 8.8125 1.98755 8.97917 2.30005 9H4.80005V10.1875ZM8.30005 12.5V11.5H9.80005V12.5C9.82088 12.8125 9.98755 12.9792 10.3 13H13.7063L15.8 14.1875V13H18.3C18.6125 12.9792 18.7792 12.8125 18.8 12.5V6.5C18.7792 6.1875 18.6125 6.02083 18.3 6H14.3V4.5H18.3C18.8625 4.52083 19.3313 4.71875 19.7063 5.09375C20.0813 5.46875 20.2792 5.92708 20.3 6.46875V12.5C20.2792 13.0625 20.0813 13.5312 19.7063 13.9062C19.3313 14.2812 18.8625 14.4792 18.3 14.5H17.3V16.125C17.2792 16.3542 17.1542 16.4792 16.925 16.5C16.8417 16.5 16.7688 16.4792 16.7063 16.4375L13.3 14.5H10.3C9.73755 14.4792 9.2688 14.2812 8.8938 13.9062C8.5188 13.5312 8.32088 13.0625 8.30005 12.5Z" fill="#5F55D0"/>
</svg>
