<svg width="17" height="14" viewBox="0 0 17 14" fill="none" xmlns="http://www.w3.org/2000/svg">
<path d="M7.92505 1.625L8.2688 2L8.6438 1.625C9.18547 1.10417 9.78963 0.739583 10.4563 0.53125C11.1438 0.322917 11.8521 0.270833 12.5813 0.375C13.6646 0.583333 14.55 1.09375 15.2375 1.90625C15.925 2.69792 16.2792 3.65625 16.3 4.78125V4.96875C16.2792 6.32292 15.7792 7.45833 14.8 8.375L9.17505 13.6562C8.92505 13.8854 8.63338 14 8.30005 14C7.96672 14 7.67505 13.8854 7.42505 13.6562L1.80005 8.375C0.820882 7.45833 0.320882 6.32292 0.300049 4.96875V4.78125C0.320882 3.65625 0.675049 2.69792 1.36255 1.90625C2.05005 1.09375 2.93547 0.583333 4.0188 0.375C4.72713 0.270833 5.42505 0.322917 6.11255 0.53125C6.80005 0.739583 7.40422 1.10417 7.92505 1.625C7.90422 1.625 7.90422 1.625 7.92505 1.625ZM8.2688 4.125L6.86255 2.65625C6.13338 1.98958 5.2688 1.71875 4.2688 1.84375C3.53963 1.98958 2.94588 2.33333 2.48755 2.875C2.05005 3.41667 1.82088 4.05208 1.80005 4.78125V4.96875C1.82088 5.88542 2.15422 6.65625 2.80005 7.28125L8.30005 12.4062L13.8 7.28125C14.4459 6.65625 14.7792 5.88542 14.8 4.96875V4.78125C14.7792 4.05208 14.5396 3.41667 14.0813 2.875C13.6438 2.33333 13.0605 1.98958 12.3313 1.84375C11.3313 1.71875 10.4667 1.98958 9.73755 2.65625L8.2688 4.125Z" fill="#5F55D0"/>
</svg>
