<svg width="36" height="36" viewBox="0 0 36 36" fill="none" xmlns="http://www.w3.org/2000/svg">
<rect width="36" height="36" rx="18" fill="#B5B5F3"/>
<path d="M24.7812 23.6289C25.0547 23.9388 25.0638 24.2487 24.8086 24.5586C24.681 24.6862 24.526 24.75 24.3438 24.75C24.1797 24.75 24.0156 24.6862 23.8516 24.5586L20.1875 20.8945C19.2031 21.6966 18.0273 22.1068 16.6602 22.125C15.056 22.0885 13.7253 21.5326 12.668 20.457C11.5924 19.3815 11.0365 18.0417 11 16.4375C11.0365 14.8333 11.5833 13.4935 12.6406 12.418C13.7161 11.3424 15.056 10.7865 16.6602 10.75C18.2643 10.7865 19.6042 11.3424 20.6797 12.418C21.7552 13.4935 22.3112 14.8333 22.3477 16.4375C22.3294 17.7865 21.9193 18.9622 21.1172 19.9648L24.7812 23.6289ZM12.3125 16.4375C12.349 17.6771 12.7773 18.707 13.5977 19.5273C14.418 20.3477 15.4479 20.776 16.6875 20.8125C17.9271 20.776 18.957 20.3477 19.7773 19.5273C20.5977 18.707 21.026 17.6771 21.0625 16.4375C21.026 15.1979 20.5977 14.168 19.7773 13.3477C18.957 12.5273 17.9271 12.099 16.6875 12.0625C15.4479 12.099 14.418 12.5273 13.5977 13.3477C12.7773 14.168 12.349 15.1979 12.3125 16.4375Z" fill="white"/>
</svg>
