<svg width="17" height="16" viewBox="0 0 17 16" fill="none" xmlns="http://www.w3.org/2000/svg">
<path d="M5.30005 8C5.32088 7.14583 5.61255 6.4375 6.17505 5.875C6.73755 5.3125 7.44588 5.02083 8.30005 5C9.15422 5.02083 9.86255 5.3125 10.425 5.875C10.9875 6.4375 11.2792 7.14583 11.3 8C11.2792 8.85417 10.9875 9.5625 10.425 10.125C9.86255 10.6875 9.15422 10.9792 8.30005 11C7.44588 10.9792 6.73755 10.6875 6.17505 10.125C5.61255 9.5625 5.32088 8.85417 5.30005 8ZM8.30005 6.5C7.88338 6.52083 7.52922 6.66667 7.23755 6.9375C6.96672 7.22917 6.82088 7.58333 6.80005 8C6.82088 8.41667 6.96672 8.77083 7.23755 9.0625C7.52922 9.33333 7.88338 9.47917 8.30005 9.5C8.71672 9.47917 9.07088 9.33333 9.36255 9.0625C9.63338 8.77083 9.77922 8.41667 9.80005 8C9.77922 7.58333 9.63338 7.22917 9.36255 6.9375C9.07088 6.66667 8.71672 6.52083 8.30005 6.5ZM9.4563 0C9.81047 0 10.123 0.104167 10.3938 0.3125C10.6646 0.520833 10.8417 0.802083 10.925 1.15625L11.175 2.15625C11.425 2.28125 11.675 2.42708 11.925 2.59375L12.925 2.3125C13.2584 2.20833 13.5813 2.21875 13.8938 2.34375C14.2063 2.46875 14.4563 2.6875 14.6438 3L15.8 5C15.9667 5.3125 16.0292 5.63542 15.9875 5.96875C15.9459 6.30208 15.8 6.59375 15.55 6.84375L14.8 7.53125C14.8 7.69792 14.8 7.85417 14.8 8C14.8 8.14583 14.8 8.29167 14.8 8.4375L15.55 9.15625C15.8 9.40625 15.9459 9.69792 15.9875 10.0312C16.0292 10.3646 15.9667 10.6875 15.8 11L14.6438 13C14.4563 13.3125 14.2063 13.5312 13.8938 13.6562C13.5813 13.7812 13.2584 13.7917 12.925 13.6875L11.925 13.4062C11.675 13.5521 11.425 13.6979 11.175 13.8438L10.925 14.8438C10.8417 15.1979 10.6646 15.4792 10.3938 15.6875C10.123 15.8958 9.81047 16 9.4563 16H7.1438C6.78963 16 6.47713 15.8958 6.2063 15.6875C5.93547 15.4792 5.75838 15.1979 5.67505 14.8438L5.42505 13.8438C5.17505 13.7188 4.92505 13.5729 4.67505 13.4062L3.6438 13.6875C3.31047 13.7917 2.98755 13.7812 2.67505 13.6562C2.38338 13.5312 2.1438 13.3125 1.9563 13L0.800049 11C0.612549 10.6875 0.550049 10.3646 0.612549 10.0312C0.654215 9.69792 0.800049 9.40625 1.05005 9.15625L1.80005 8.4375C1.80005 8.29167 1.80005 8.13542 1.80005 7.96875C1.80005 7.84375 1.80005 7.69792 1.80005 7.53125L1.05005 6.84375C0.800049 6.59375 0.654215 6.30208 0.612549 5.96875C0.550049 5.63542 0.612549 5.3125 0.800049 5L1.9563 3C2.1438 2.6875 2.38338 2.46875 2.67505 2.34375C2.98755 2.21875 3.31047 2.20833 3.6438 2.3125L4.67505 2.59375C4.92505 2.42708 5.17505 2.28125 5.42505 2.15625L5.67505 1.15625C5.75838 0.802083 5.93547 0.520833 6.2063 0.3125C6.47713 0.104167 6.78963 0 7.1438 0H9.4563ZM6.73755 3.25L6.36255 3.375C5.96672 3.54167 5.60213 3.76042 5.2688 4.03125L4.9563 4.25L3.23755 3.75L2.0813 5.75L3.3938 7L3.3313 7.375C3.31047 7.58333 3.30005 7.79167 3.30005 8C3.30005 8.20833 3.31047 8.41667 3.3313 8.625L3.3938 9L2.0813 10.25L3.23755 12.25L4.9563 11.75L5.2688 11.9688C5.60213 12.2396 5.96672 12.4583 6.36255 12.625L6.73755 12.75L7.1438 14.5H9.4563L9.8938 12.75L10.2375 12.625C10.6334 12.4583 10.998 12.2396 11.3313 11.9688L11.6438 11.75L13.3625 12.25L14.5188 10.25L13.2063 9L13.2688 8.625C13.2896 8.41667 13.3 8.20833 13.3 8C13.3 7.79167 13.2896 7.58333 13.2688 7.375L13.2063 7L14.5188 5.75L13.3625 3.75L11.6438 4.25L11.3313 4.03125C10.998 3.76042 10.6334 3.54167 10.2375 3.375L9.8938 3.25L9.4563 1.5H7.1438L6.73755 3.25Z" fill="#5F55D0"/>
</svg>
