<svg width="18" height="17" viewBox="0 0 18 17" fill="none" xmlns="http://www.w3.org/2000/svg">
<path d="M9.30005 0C9.61255 0.0208333 9.84172 0.166667 9.98755 0.4375L12.1125 4.84375L16.8938 5.5625C17.2063 5.60417 17.4146 5.77083 17.5188 6.0625C17.6021 6.35417 17.5396 6.60417 17.3313 6.8125L13.8625 10.25L14.675 15.125C14.7167 15.4167 14.6125 15.6562 14.3625 15.8438C14.0917 16.0104 13.8313 16.0312 13.5813 15.9062L9.30005 13.625L4.98755 15.9062C4.73755 16.0312 4.48755 16.0104 4.23755 15.8438C3.98755 15.6562 3.87297 15.4167 3.8938 15.125L4.73755 10.25L1.2688 6.8125C1.06047 6.60417 0.997965 6.35417 1.0813 6.0625C1.18547 5.77083 1.38338 5.60417 1.67505 5.5625L6.48755 4.84375L8.61255 0.4375C8.75838 0.166667 8.98755 0.0208333 9.30005 0ZM9.30005 2.46875L7.6438 5.84375C7.53963 6.07292 7.35213 6.21875 7.0813 6.28125L3.3938 6.8125L6.0813 9.46875C6.24797 9.65625 6.32088 9.875 6.30005 10.125L5.6438 13.875L8.9563 12.125C9.18547 12 9.41463 12 9.6438 12.125L12.925 13.875L12.3 10.125C12.2584 9.875 12.3313 9.65625 12.5188 9.46875L15.2063 6.8125L11.5188 6.28125C11.248 6.21875 11.0605 6.07292 10.9563 5.84375L9.30005 2.46875Z" fill="#F2CA9A"/>
</svg>
