<svg width="44" height="44" viewBox="0 0 44 44" fill="none" xmlns="http://www.w3.org/2000/svg">
<path d="M32.3018 28.1965C32.4855 31.6367 32.0975 34.5088 31.1379 36.8126C30.2408 39.0996 28.8615 40.5261 27 41.092C25.1508 41.4533 23.4499 41.0535 21.8974 39.8925C20.3449 38.7315 19.049 37.4012 18.0096 35.9014C16.9702 34.4016 16.3155 33.3356 16.0455 32.7034C16.0058 32.6805 15.9775 32.6377 15.9608 32.5751C15.3408 32.6405 14.1101 32.618 12.2687 32.5075C10.4272 32.3969 8.58437 31.9681 6.74008 31.2208C4.89579 30.4735 3.67085 29.1577 3.06526 27.2733C2.62458 25.3782 3.17031 23.4705 4.70243 21.5501C6.25748 19.59 8.55073 17.818 11.5822 16.234C11.4611 12.777 11.8491 9.90496 12.7462 7.61791C13.6432 5.33086 15.0225 3.90438 16.884 3.33849C18.7791 2.89782 20.6868 3.44354 22.6072 4.97567C24.5276 6.50779 26.2996 8.80104 27.9233 11.8554C31.3803 11.7344 34.2523 12.1224 36.5394 13.0194C38.8264 13.9165 40.2529 15.2957 40.8188 17.1572C41.2595 19.0523 40.7137 20.96 39.1816 22.8804C37.6495 24.8008 35.3562 26.5728 32.3018 28.1965ZM14.906 14.7394C17.9359 13.525 21.0663 12.6862 24.2975 12.223C23.4459 10.6729 22.4088 9.30674 21.1861 8.1245C19.9863 6.90257 18.8375 6.3716 17.7396 6.53157C16.9257 6.74966 16.2597 7.58239 15.7416 9.02975C15.1838 10.4542 14.9053 12.3574 14.906 14.7394ZM14.5257 29.2856C13.2716 26.2329 12.4244 23.0711 11.9842 19.8003C9.89798 21.0303 8.37753 22.243 7.42282 23.4383C6.42841 24.6106 6.04025 25.6038 6.25834 26.4177C6.49935 27.1919 7.33208 27.8579 8.75652 28.4157C10.181 28.9735 12.104 29.2635 14.5257 29.2856ZM28.7295 26.134C28.297 22.3914 27.3324 18.7913 25.8356 15.3339C22.093 15.7663 18.4929 16.7309 15.0355 18.2278C15.4679 21.9704 16.4325 25.5704 17.9294 29.0279C21.7514 28.6413 25.3514 27.6766 28.7295 26.134ZM23.8221 23.2213C23.5013 23.777 23.0591 24.1304 22.4956 24.2814C21.9321 24.4324 21.3726 24.3474 20.8169 24.0266C20.2612 23.7058 19.9078 23.2636 19.7568 22.7001C19.6058 22.1366 19.6908 21.577 20.0116 21.0213C20.3324 20.4656 20.7746 20.1123 21.3381 19.9613C21.9016 19.8103 22.4612 19.8952 23.0169 20.2161C23.5496 20.5766 23.8915 21.0386 24.0425 21.6021C24.1935 22.1656 24.12 22.7053 23.8221 23.2213ZM29.0124 29.6315C25.9596 30.8857 22.8177 31.7443 19.5866 32.2075C20.7769 34.2708 21.9697 35.7797 23.165 36.7345C24.3603 37.6892 25.3534 38.0773 26.1444 37.8989C26.9584 37.6808 27.6244 36.8481 28.1425 35.4007C28.7003 33.9763 28.9902 32.0532 29.0124 29.6315ZM29.4178 15.1793C30.6323 18.2091 31.4711 21.3396 31.9343 24.5707C33.9975 23.3803 35.5065 22.1875 36.4612 20.9923C37.4556 19.8199 37.8438 18.8267 37.6257 18.0128C37.255 17.0049 36.2322 16.2556 34.5573 15.765C32.8992 15.3369 31.186 15.1417 29.4178 15.1793Z" fill="#B5B5F3"/>
</svg>
