<svg width="15" height="16" viewBox="0 0 15 16" fill="none" xmlns="http://www.w3.org/2000/svg">
<path d="M14.3 11C14.2584 11.6875 13.925 12.1562 13.3 12.4062V14.5H13.55C14.0084 14.5417 14.2584 14.7917 14.3 15.25C14.2584 15.7083 14.0084 15.9583 13.55 16H2.80005C2.09172 15.9792 1.49797 15.7396 1.0188 15.2812C0.560465 14.8021 0.320882 14.2083 0.300049 13.5V2.5C0.320882 1.79167 0.560465 1.19792 1.0188 0.71875C1.49797 0.260417 2.09172 0.0208333 2.80005 0H12.8C13.2167 0.0208333 13.5709 0.166667 13.8625 0.4375C14.1334 0.729167 14.2792 1.08333 14.3 1.5V11ZM11.8 14.5V12.5H2.80005C2.50838 12.5 2.2688 12.5938 2.0813 12.7812C1.8938 12.9688 1.80005 13.2083 1.80005 13.5C1.80005 13.7917 1.8938 14.0312 2.0813 14.2188C2.2688 14.4062 2.50838 14.5 2.80005 14.5H11.8ZM12.8 11V1.5H2.80005C2.50838 1.5 2.2688 1.59375 2.0813 1.78125C1.8938 1.96875 1.80005 2.20833 1.80005 2.5V11.2188C2.11255 11.0729 2.44588 11 2.80005 11H12.8ZM5.2688 4.5L4.36255 4.125C4.32088 4.08333 4.30005 4.04167 4.30005 4C4.30005 3.95833 4.32088 3.91667 4.36255 3.875L5.2688 3.5L5.67505 2.5625C5.69588 2.5625 5.7063 2.5625 5.7063 2.5625C5.7063 2.52083 5.72713 2.5 5.7688 2.5C5.8313 2.5 5.87297 2.52083 5.8938 2.5625C5.8938 2.5625 5.90422 2.5625 5.92505 2.5625L6.2688 3.5L7.2063 3.875C7.24797 3.91667 7.2688 3.95833 7.2688 4C7.2688 4.02083 7.25838 4.04167 7.23755 4.0625C7.23755 4.08333 7.23755 4.10417 7.23755 4.125L6.2688 4.5L5.8938 5.4375C5.85213 5.47917 5.81047 5.5 5.7688 5.5C5.74797 5.5 5.71672 5.47917 5.67505 5.4375L5.2688 4.5ZM6.80005 7.46875C6.80005 7.40625 6.84172 7.35417 6.92505 7.3125L8.4563 6.65625L9.11255 5.125C9.15422 5.04167 9.21672 5 9.30005 5C9.38338 5 9.44588 5.04167 9.48755 5.125L10.1438 6.65625L11.675 7.3125C11.7584 7.35417 11.8 7.41667 11.8 7.5C11.8 7.58333 11.7584 7.63542 11.675 7.65625L10.1438 8.3125L9.48755 9.84375C9.44588 9.92708 9.38338 9.96875 9.30005 9.96875C9.21672 9.96875 9.15422 9.92708 9.11255 9.84375L8.4563 8.3125L6.92505 7.65625C6.84172 7.61458 6.80005 7.55208 6.80005 7.46875Z" fill="#747980"/>
</svg>
