<svg width="17" height="16" viewBox="0 0 17 16" fill="none" xmlns="http://www.w3.org/2000/svg">
<path d="M9.8938 10.1562L5.36255 11.9062C5.02922 11.9896 4.75838 11.9271 4.55005 11.7188C4.36255 11.5104 4.31047 11.25 4.3938 10.9375L6.1438 6.40625C6.24797 6.13542 6.43547 5.94792 6.7063 5.84375L11.2375 4.09375C11.55 4.01042 11.8105 4.0625 12.0188 4.25C12.2271 4.45833 12.2896 4.72917 12.2063 5.0625L10.4563 9.59375C10.3521 9.86458 10.1646 10.0521 9.8938 10.1562ZM8.2688 7C7.99797 7 7.7688 7.09375 7.5813 7.28125C7.3938 7.46875 7.28963 7.70833 7.2688 8C7.28963 8.29167 7.3938 8.53125 7.5813 8.71875C7.7688 8.90625 7.99797 9 8.2688 9C8.56047 9 8.81047 8.90625 9.0188 8.71875C9.2063 8.53125 9.30005 8.29167 9.30005 8C9.30005 7.70833 9.2063 7.46875 9.0188 7.28125C8.81047 7.09375 8.56047 7 8.2688 7ZM16.3 8C16.2792 9.5 15.9146 10.8438 15.2063 12.0312C14.498 13.2396 13.5396 14.1979 12.3313 14.9062C11.1438 15.6146 9.80005 15.9792 8.30005 16C6.80005 15.9792 5.4563 15.6146 4.2688 14.9062C3.06047 14.1979 2.10213 13.2396 1.3938 12.0312C0.685465 10.8438 0.320882 9.5 0.300049 8C0.320882 6.5 0.685465 5.15625 1.3938 3.96875C2.10213 2.76042 3.06047 1.80208 4.2688 1.09375C5.4563 0.385417 6.80005 0.0208333 8.30005 0C9.80005 0.0208333 11.1438 0.385417 12.3313 1.09375C13.5396 1.80208 14.498 2.76042 15.2063 3.96875C15.9146 5.15625 16.2792 6.5 16.3 8ZM8.30005 1.5C6.46672 1.54167 4.93547 2.17708 3.7063 3.40625C2.47713 4.63542 1.84172 6.16667 1.80005 8C1.84172 9.83333 2.47713 11.3646 3.7063 12.5938C4.93547 13.8229 6.46672 14.4583 8.30005 14.5C10.1334 14.4583 11.6646 13.8229 12.8938 12.5938C14.123 11.3646 14.7584 9.83333 14.8 8C14.7584 6.16667 14.123 4.63542 12.8938 3.40625C11.6646 2.17708 10.1334 1.54167 8.30005 1.5Z" fill="#5F55D0"/>
</svg>
