<svg width="36" height="36" viewBox="0 0 36 36" fill="none" xmlns="http://www.w3.org/2000/svg">
<rect width="36" height="36" rx="18" fill="#B5B5F3"/>
<path d="M19.5938 20.1562L15.0625 21.9062C14.7292 21.9896 14.4583 21.9271 14.25 21.7188C14.0625 21.5104 14.0104 21.25 14.0938 20.9375L15.8438 16.4062C15.9479 16.1354 16.1354 15.9479 16.4062 15.8438L20.9375 14.0938C21.25 14.0104 21.5104 14.0625 21.7188 14.25C21.9271 14.4583 21.9896 14.7292 21.9062 15.0625L20.1562 19.5938C20.0521 19.8646 19.8646 20.0521 19.5938 20.1562ZM17.9688 17C17.6979 17 17.4688 17.0938 17.2812 17.2812C17.0938 17.4688 16.9896 17.7083 16.9688 18C16.9896 18.2917 17.0938 18.5312 17.2812 18.7188C17.4688 18.9062 17.6979 19 17.9688 19C18.2604 19 18.5104 18.9062 18.7188 18.7188C18.9062 18.5312 19 18.2917 19 18C19 17.7083 18.9062 17.4688 18.7188 17.2812C18.5104 17.0938 18.2604 17 17.9688 17ZM26 18C25.9792 19.5 25.6146 20.8438 24.9062 22.0312C24.1979 23.2396 23.2396 24.1979 22.0312 24.9062C20.8438 25.6146 19.5 25.9792 18 26C16.5 25.9792 15.1562 25.6146 13.9688 24.9062C12.7604 24.1979 11.8021 23.2396 11.0938 22.0312C10.3854 20.8438 10.0208 19.5 10 18C10.0208 16.5 10.3854 15.1562 11.0938 13.9688C11.8021 12.7604 12.7604 11.8021 13.9688 11.0938C15.1562 10.3854 16.5 10.0208 18 10C19.5 10.0208 20.8438 10.3854 22.0312 11.0938C23.2396 11.8021 24.1979 12.7604 24.9062 13.9688C25.6146 15.1562 25.9792 16.5 26 18ZM18 11.5C16.1667 11.5417 14.6354 12.1771 13.4062 13.4062C12.1771 14.6354 11.5417 16.1667 11.5 18C11.5417 19.8333 12.1771 21.3646 13.4062 22.5938C14.6354 23.8229 16.1667 24.4583 18 24.5C19.8333 24.4583 21.3646 23.8229 22.5938 22.5938C23.8229 21.3646 24.4583 19.8333 24.5 18C24.4583 16.1667 23.8229 14.6354 22.5938 13.4062C21.3646 12.1771 19.8333 11.5417 18 11.5Z" fill="white"/>
</svg>
