<svg width="36" height="36" viewBox="0 0 36 36" fill="none" xmlns="http://www.w3.org/2000/svg">
<rect width="36" height="36" rx="18" fill="#B5B5F3"/>
<path d="M24.0156 11.7344C24.6719 12.4089 25 13.1927 25 14.0859C25 14.9609 24.6628 15.7539 23.9883 16.4648L23.1953 17.2305C22.5391 17.8685 21.7643 18.1966 20.8711 18.2148L18.6016 20.1836V24.0938C18.5651 24.4948 18.3464 24.7135 17.9453 24.75C17.5625 24.7135 17.3529 24.4948 17.3164 24.0938V21.332L13.8438 24.4219C13.5703 24.6589 13.2695 24.7682 12.9414 24.75C12.6133 24.7318 12.3216 24.6042 12.0664 24.3672L11.3555 23.6562C11.1185 23.401 11 23.1094 11 22.7812C11 22.4349 11.1094 22.1341 11.3281 21.8789L17.5625 14.8242C17.5807 13.931 17.9089 13.1562 18.5469 12.5L19.3125 11.7344C20.0052 11.0781 20.7891 10.75 21.6641 10.75C22.5573 10.75 23.3411 11.0781 24.0156 11.7344ZM12.9961 23.4102L19.5859 17.5859L18.1367 16.1367L12.3125 22.7266L12.9961 23.4102ZM20.8984 16.875C21.4089 16.875 21.8555 16.7018 22.2383 16.3555L19.3945 13.5117C19.0117 13.9674 18.8477 14.487 18.9023 15.0703L20.6797 16.8477C20.7526 16.8659 20.8255 16.875 20.8984 16.875ZM23.168 15.4258C23.5143 15.0065 23.6875 14.5417 23.6875 14.0312C23.6693 13.5026 23.4688 13.0469 23.0859 12.6641C22.7031 12.2812 22.2474 12.0807 21.7188 12.0625C21.1901 12.0443 20.7253 12.2174 20.3242 12.582L23.168 15.4258Z" fill="white"/>
</svg>
