<svg width="15" height="16" viewBox="0 0 15 16" fill="none" xmlns="http://www.w3.org/2000/svg">
<path d="M8.29999 1V1.5625C9.46665 1.77083 10.4146 2.30208 11.1437 3.15625C11.8937 4.01042 12.2792 5.04167 12.3 6.25V7.28125C12.3208 8.73958 12.7792 10.0417 13.675 11.1875L14.1437 11.7812C14.3312 12.0312 14.3625 12.2917 14.2375 12.5625C14.0917 12.8333 13.8625 12.9792 13.55 13H1.04999C0.737488 12.9792 0.508321 12.8333 0.362488 12.5625C0.237488 12.2917 0.268738 12.0312 0.456238 11.7812L0.924988 11.1875C1.82082 10.0417 2.27915 8.73958 2.29999 7.28125V6.25C2.32082 5.04167 2.70624 4.01042 3.45624 3.15625C4.1854 2.30208 5.13332 1.77083 6.29999 1.5625V1C6.29999 0.708333 6.39374 0.46875 6.58124 0.28125C6.76874 0.09375 7.00832 0 7.29999 0C7.59165 0 7.83124 0.09375 8.01874 0.28125C8.20624 0.46875 8.29999 0.708333 8.29999 1ZM7.04999 3C6.13332 3.02083 5.36249 3.33333 4.73749 3.9375C4.13332 4.5625 3.82082 5.33333 3.79999 6.25V7.28125C3.79999 8.82292 3.38332 10.2292 2.54999 11.5H12.05C11.2167 10.2292 10.8 8.82292 10.8 7.28125V6.25C10.7792 5.33333 10.4667 4.5625 9.86249 3.9375C9.23749 3.33333 8.46665 3.02083 7.54999 3H7.04999ZM9.29999 14C9.29999 14.5417 9.10207 15.0104 8.70624 15.4062C8.3104 15.8021 7.84165 16 7.29999 16C6.75832 16 6.28957 15.8021 5.89374 15.4062C5.4979 15.0104 5.29999 14.5417 5.29999 14H9.29999Z" fill="#5F55D0"/>
</svg>
